# xmcd
#
# Track frame offsets: 
#        150
#        17867
#        38237
#        59010
#        78905
#        93735
#        119550
#        136010
#        154072
#        166502
#        187475
#        205287
#
# Disc length: 2845 seconds
#
# Revision: 3
# Processed by: cddbd v1.5.2PL0 Copyright (c) Steve Scherf et al.
# Submitted via: ExactAudioCopy v0.95b3
#
DISCID=a60b1b0c
DTITLE=Борис Гребенщиков - Radio Silence ((Jap.pressing 25DP-5648))
DYEAR=1989
DGENRE=Rock
TTITLE0=Radio Silence
TTITLE1=The Postcard
TTITLE2=The Wind
TTITLE3=The Time
TTITLE4=Winter
TTITLE5=That Voice Again
TTITLE6=Young Lions
TTITLE7=Fields Of My Love
TTITLE8=Death Of King Arthur
TTITLE9=Real Slow Today
TTITLE10=Mother
TTITLE11=China
EXTD=YEAR: 1989
EXTT0=
EXTT1=
EXTT2=
EXTT3=
EXTT4=
EXTT5=
EXTT6=
EXTT7=
EXTT8=
EXTT9=
EXTT10=
EXTT11=
PLAYORDER=
